<?xml version="1.0" standalone="no"?>
<!DOCTYPE svg PUBLIC "-//W3C//DTD SVG 20010904//EN"
 "http://www.w3.org/TR/2001/REC-SVG-20010904/DTD/svg10.dtd">
<svg version="1.0" xmlns="http://www.w3.org/2000/svg"
 width="400.000000pt" height="400.000000pt" viewBox="0 0 400.000000 400.000000"
 preserveAspectRatio="xMidYMid meet">
<metadata>
Created by potrace 1.11, written by Peter Selinger 2001-2013
</metadata>
<g transform="translate(0.000000,400.000000) scale(0.100000,-0.100000)"
fill="#000000" stroke="none">
<path d="M2850 3666 c0 -8 -7 -22 -16 -30 -8 -9 -13 -16 -10 -16 6 0 -50 -106
-68 -130 -7 -8 -18 -27 -25 -41 -7 -15 -24 -38 -37 -52 -13 -14 -24 -29 -24
-31 0 -9 -30 -43 -86 -100 -56 -56 -114 -109 -114 -102 0 3 -23 -11 -51 -30
-28 -19 -55 -31 -60 -28 -5 3 -9 0 -9 -5 0 -6 -8 -11 -18 -11 -10 0 -23 -5
-30 -12 -7 -7 -12 -9 -12 -5 0 3 -12 2 -27 -4 -28 -10 -73 -18 -131 -23 -17
-1 -35 -5 -38 -9 -4 -4 -13 -2 -21 4 -9 9 -13 8 -13 0 0 -9 -5 -9 -20 -1 -14
8 -20 8 -20 0 0 -8 -6 -8 -20 0 -14 8 -20 8 -20 0 0 -8 -6 -8 -20 0 -11 6 -20
7 -20 2 0 -5 -10 -8 -22 -6 -13 1 -23 3 -23 4 0 2 -44 3 -97 4 -54 2 -101 5
-104 9 -3 3 -17 2 -30 -3 -14 -6 -26 -6 -29 0 -4 6 -14 7 -23 2 -9 -4 -36 -8
-59 -7 -24 0 -43 -3 -43 -8 0 -4 -8 -4 -17 1 -9 6 -24 6 -32 2 -9 -4 -43 -16
-76 -25 -147 -42 -241 -129 -251 -231 -4 -42 40 -110 81 -124 16 -6 32 -10 34
-9 2 0 7 -4 10 -9 3 -6 20 -12 38 -15 17 -3 36 -8 42 -11 5 -4 13 -2 16 4 4 7
11 7 18 2 20 -15 332 3 332 19 0 1 11 3 25 4 14 1 43 6 65 10 55 12 55 12 58
15 1 1 13 3 27 5 14 2 39 6 55 9 17 4 46 8 65 9 19 2 40 5 45 8 28 14 249 -1
280 -20 6 -3 16 -6 23 -7 33 -5 77 -91 66 -127 -5 -16 -2 -18 17 -12 22 7 32
14 64 43 8 7 15 10 15 5 1 -4 7 7 16 26 23 53 -3 105 -80 159 -70 49 -126 67
-246 78 -35 3 -68 8 -72 10 -4 3 -8 1 -8 -4 0 -13 -33 -10 -42 3 -5 6 -8 6 -8
-2 0 -6 -8 -12 -17 -12 -15 0 -63 -5 -133 -15 -9 -1 -21 -5 -28 -10 -6 -4 -12
-5 -12 -2 0 3 -11 1 -26 -4 -14 -6 -37 -12 -52 -15 -15 -3 -38 -7 -52 -10
-134 -30 -320 -41 -369 -22 -27 10 -51 47 -51 78 0 17 49 56 91 72 88 32 203
37 614 26 53 -2 115 4 115 11 0 3 10 7 23 7 46 3 67 8 67 16 0 4 4 6 9 3 5 -4
29 3 54 13 25 11 48 17 51 14 3 -4 6 -1 6 5 0 7 3 11 8 10 21 -6 177 91 210
131 6 8 12 12 12 8 0 -3 16 9 35 29 19 19 35 37 35 41 0 3 8 13 18 22 36 34
122 179 122 209 0 6 5 12 11 12 6 0 9 7 5 15 -3 8 -2 15 3 15 7 0 22 50 20 63
0 1 4 14 10 30 16 43 21 76 10 82 -5 4 -9 -1 -9 -9z"/>
<path d="M610 2431 c0 -6 -5 -10 -12 -8 -14 2 -18 -23 -7 -38 4 -6 4 -17 0
-24 -5 -7 -5 -27 -2 -45 4 -17 6 -47 5 -66 0 -19 3 -41 9 -47 6 -9 6 -13 -1
-13 -7 0 -8 -11 -1 -32 5 -18 9 -50 9 -70 0 -21 3 -38 8 -38 4 0 8 -12 8 -27
2 -48 12 -100 22 -120 5 -10 8 -26 7 -35 -2 -10 1 -18 6 -18 5 0 9 -13 9 -28
0 -15 4 -32 10 -38 5 -5 11 -18 13 -29 5 -27 14 -49 48 -123 16 -35 29 -67 29
-72 0 -6 5 -10 11 -10 5 0 8 -4 5 -9 -4 -5 5 -23 19 -39 14 -16 25 -33 25 -37
0 -29 213 -265 240 -265 6 0 8 -5 4 -12 -4 -6 -3 -8 4 -4 6 3 13 2 17 -3 3 -6
32 -25 65 -43 33 -18 60 -36 60 -41 0 -4 5 -5 10 -2 6 4 17 2 24 -4 12 -10
106 -46 131 -50 6 -1 27 -6 49 -12 21 -6 59 -13 85 -16 66 -8 65 -8 79 -16 6
-5 12 -4 12 0 0 9 40 10 56 1 10 -5 72 -10 141 -11 23 0 40 -5 36 -10 -3 -5 4
-4 16 2 12 7 26 9 33 5 15 -10 68 -11 96 -2 12 4 22 4 22 -1 0 -11 33 -9 41 3
4 4 17 3 29 -4 15 -8 20 -8 16 -1 -6 10 50 15 157 14 9 0 17 3 17 6 0 3 24 6
53 5 28 0 56 2 62 5 5 3 16 6 25 7 8 1 33 5 55 9 22 4 45 8 50 8 6 1 12 4 15
7 4 4 119 46 144 53 5 1 18 9 28 17 10 8 20 13 21 10 1 -2 22 10 47 27 25 17
48 31 52 32 17 3 151 132 188 180 14 18 35 45 48 58 12 14 22 32 22 39 0 8 5
14 10 14 6 0 10 4 10 9 0 5 15 36 34 69 19 33 32 63 28 66 -3 3 0 6 6 6 7 0
12 9 12 19 0 11 6 26 13 33 7 7 12 23 11 36 -1 12 2 22 6 22 4 0 11 12 15 28
5 15 10 33 12 39 2 7 6 26 10 43 3 16 9 30 14 30 5 0 6 7 3 15 -4 8 -2 21 3
28 5 6 9 19 8 27 -1 8 2 22 6 30 4 8 10 39 14 69 4 30 9 63 11 75 8 37 16 148
18 231 l1 80 -71 1 c-39 1 -76 4 -82 8 -6 3 -13 2 -16 -2 -6 -10 -48 -8 -65 2
-5 4 -12 2 -15 -2 -6 -10 -48 -8 -65 2 -5 4 -12 2 -15 -2 -5 -8 -29 -9 -61 -2
-5 1 -12 2 -15 1 -16 -6 -209 -3 -218 3 -7 4 -12 4 -12 -1 0 -10 -212 -9 -228
1 -7 4 -12 4 -12 -1 0 -9 -222 -9 -238 1 -6 3 -13 2 -16 -2 -6 -10 -48 -8 -65
2 -5 4 -12 2 -15 -2 -6 -10 -48 -8 -65 2 -5 4 -12 2 -15 -2 -5 -8 -29 -9 -61
-2 -5 1 -12 2 -15 1 -16 -6 -209 -3 -218 3 -7 4 -12 4 -12 -1 0 -10 -212 -9
-228 1 -7 4 -12 4 -12 -1 0 -10 -212 -9 -228 1 -7 4 -12 4 -12 -1 0 -10 -212
-9 -228 1 -7 4 -12 4 -12 -1 0 -10 -52 -9 -68 1 -7 4 -12 4 -12 -1 0 -10 -212
-9 -228 1 -7 4 -12 4 -12 -1 0 -10 -52 -9 -68 1 -7 4 -12 2 -12 -3z"/>
<path d="M3385 2330 c-4 -6 -6 -30 -4 -53 1 -23 -1 -49 -4 -57 -12 -31 -3 -65
18 -65 11 0 26 -4 33 -8 6 -5 12 -6 12 -2 0 3 10 0 23 -7 12 -7 25 -11 30 -10
4 1 7 -2 7 -8 0 -5 11 -20 24 -33 18 -18 23 -33 22 -68 -2 -44 -24 -109 -38
-109 -5 0 -8 -6 -8 -12 0 -12 -30 -41 -125 -123 -16 -14 -47 -33 -67 -42 -21
-9 -38 -21 -38 -26 0 -4 -4 -5 -10 -2 -5 3 -10 -1 -10 -9 0 -26 -1 -30 -12
-43 -6 -7 -7 -21 -4 -30 4 -10 4 -14 0 -10 -9 8 -35 -63 -28 -75 3 -4 0 -8 -6
-8 -6 0 -8 -4 -5 -10 4 -6 16 -5 34 5 16 8 31 11 35 8 3 -4 6 -2 6 3 0 6 19
18 43 29 55 24 206 121 234 151 12 13 26 24 32 24 5 0 13 9 16 20 3 11 10 20
15 20 11 0 79 111 83 136 1 10 5 24 9 29 10 17 7 157 -5 184 -6 14 -17 34 -25
44 -9 9 -11 17 -7 17 5 0 -13 20 -40 45 -27 24 -52 42 -57 39 -4 -3 -8 -1 -8
4 0 9 -90 45 -142 56 -15 3 -30 1 -33 -4z"/>
<path d="M430 923 c0 -15 103 -93 122 -93 8 0 18 -4 24 -9 5 -5 31 -12 58 -15
27 -3 52 -8 54 -11 3 -3 11 0 19 6 9 8 13 8 13 0 0 -7 8 -8 26 -1 14 6 23 7
21 2 -3 -4 10 -7 29 -7 19 0 34 4 34 8 0 4 8 3 18 -2 13 -7 22 -7 29 0 8 8 13
8 17 0 5 -7 15 -7 32 -1 14 6 23 6 20 1 -4 -5 3 -7 14 -4 16 4 32 -6 63 -40
l42 -46 893 1 c715 0 895 3 905 13 7 7 23 26 36 43 18 22 31 29 52 28 16 -1
29 2 29 6 0 5 9 4 19 -2 14 -7 22 -7 26 0 5 8 11 8 20 0 10 -8 15 -8 20 0 5 8
10 8 20 0 10 -8 15 -8 20 0 5 8 10 8 20 0 10 -8 15 -8 20 0 5 8 11 8 19 1 9
-7 16 -7 24 1 9 9 15 9 23 1 7 -7 20 -8 34 -3 15 6 27 4 35 -3 10 -9 11 -9 6
1 -5 8 0 12 13 12 22 0 94 31 99 43 2 4 7 7 12 7 10 0 70 52 70 61 0 3 -686 6
-1525 6 -839 0 -1525 -2 -1525 -4z"/>
</g>
</svg>
